<svg id="visual" viewBox="0 0 900 600" width="900" height="600" xmlns="http://www.w3.org/2000/svg" xmlns:xlink="http://www.w3.org/1999/xlink" version="1.1"><rect x="0" y="0" width="900" height="600" fill="#162328"></rect><path d="M0 403L150 385L300 430L450 368L600 429L750 376L900 415L900 601L750 601L600 601L450 601L300 601L150 601L0 601Z" fill="#871400"></path><path d="M0 432L150 423L300 394L450 405L600 466L750 400L900 444L900 601L750 601L600 601L450 601L300 601L150 601L0 601Z" fill="#ad1b4f"></path><path d="M0 450L150 508L300 478L450 507L600 499L750 437L900 475L900 601L750 601L600 601L450 601L300 601L150 601L0 601Z" fill="#b04b9b"></path><path d="M0 510L150 528L300 515L450 483L600 529L750 537L900 488L900 601L750 601L600 601L450 601L300 601L150 601L0 601Z" fill="#8c7ddb"></path><path d="M0 560L150 570L300 541L450 556L600 554L750 535L900 573L900 601L750 601L600 601L450 601L300 601L150 601L0 601Z" fill="#39a9ff"></path></svg>