<svg id="visual" viewBox="0 0 900 600" width="900" height="600" xmlns="http://www.w3.org/2000/svg" xmlns:xlink="http://www.w3.org/1999/xlink" version="1.1"><rect x="0" y="0" width="900" height="600" fill="#ffe0e0"></rect><path d="M0 364L150 342L300 396L450 321L600 395L750 332L900 378L900 601L750 601L600 601L450 601L300 601L150 601L0 601Z" fill="#ff8e7a"></path><path d="M0 399L150 388L300 353L450 366L600 439L750 361L900 413L900 601L750 601L600 601L450 601L300 601L150 601L0 601Z" fill="#ff99ba"></path><path d="M0 420L150 490L300 453L450 489L600 479L750 405L900 450L900 601L750 601L600 601L450 601L300 601L150 601L0 601Z" fill="#e8b2ea"></path><path d="M0 492L150 514L300 498L450 460L600 515L750 525L900 466L900 601L750 601L600 601L450 601L300 601L150 601L0 601Z" fill="#c6cbff"></path><path d="M0 552L150 564L300 530L450 548L600 546L750 522L900 567L900 601L750 601L600 601L450 601L300 601L150 601L0 601Z" fill="#b6dfff"></path></svg>