<svg id="visual" viewBox="0 0 900 600" width="900" height="600" xmlns="http://www.w3.org/2000/svg" xmlns:xlink="http://www.w3.org/1999/xlink" version="1.1"><rect x="0" y="0" width="900" height="600" fill="#c4bbff"></rect><path d="M0 352L180 434L360 431L540 363L720 389L900 427L900 601L720 601L540 601L360 601L180 601L0 601Z" fill="#f36951"></path><path d="M0 471L180 407L360 448L540 461L720 426L900 404L900 601L720 601L540 601L360 601L180 601L0 601Z" fill="#ca4f78"></path><path d="M0 438L180 483L360 469L540 501L720 505L900 444L900 601L720 601L540 601L360 601L180 601L0 601Z" fill="#864c84"></path><path d="M0 515L180 522L360 509L540 498L720 541L900 502L900 601L720 601L540 601L360 601L180 601L0 601Z" fill="#42456f"></path><path d="M0 532L180 537L360 554L540 561L720 569L900 525L900 601L720 601L540 601L360 601L180 601L0 601Z" fill="#1d3446"></path></svg>