<?xml version="1.0" encoding="UTF-8" standalone="no"?>
<!-- Created with Inkscape (http://www.inkscape.org/) -->

<svg
   version="1.1"
   id="svg1"
   width="1177"
   height="662"
   stroke="currentColor" 
   viewBox="0 0 1177 662"
   sodipodidocname="genshin_loading_elements.svg"
   inkscapeversion="1.4 (86a8ad7, 2024-10-11)"
   xmlnsinkscape="http://www.inkscape.org/namespaces/inkscape"
   xmlnssodipodi="http://sodipodi.sourceforge.net/DTD/sodipodi-0.dtd"
   xmlns="http://www.w3.org/2000/svg"
   xmlnssvg="http://www.w3.org/2000/svg">
  <defs
     id="defs1" />
  <sodipodiNamedview
     id="namedview1"
     pagecolor="#ffffff"
     bordercolor="#000000"
     borderopacity="0.25"
     inkscapeshowpageshadow="2"
     inkscapepageopacity="0.0"
     inkscapepagecheckerboard="0"
     inkscapedeskcolor="#d1d1d1"
     inkscapezoom="2.5830816"
     inkscapecx="428.17076"
     inkscapecy="316.86959"
     inkscapewindow-width="1920"
     inkscapewindow-height="1057"
     inkscapewindow-x="1912"
     inkscapewindow-y="-8"
     inkscapewindow-maximized="1"
     inkscapecurrent-layer="g1" />
  <g
     inkscapegroupmode="layer"
     inkscapelabel="Image"
     id="g1">
    <path
       style="fill:currentColor"
       d="m 780.16587,365.00611 c -5.28827,-9.28213 -5.85039,-10.5472 -4.24594,-9.5556 1.44721,0.89443 4.85903,-4.13895 7.24948,-10.69499 l 2.18637,-5.99632 1.15736,3.8704 c 1.81587,6.07258 5.38326,12.3704 7.00718,12.3704 1.97241,0 1.86988,1.99971 -0.25778,5.02749 -0.95561,1.35988 -3.13097,5.07653 -4.83414,8.25922 l -3.09666,5.78671 z m 7.86249,-5.54028 c 1.04124,-1.25462 0.93658,-2.52465 -0.57439,-6.96984 -1.0162,-2.98961 -2.07975,-5.20355 -2.36344,-4.91985 -0.28369,0.28369 -1.31009,2.60826 -2.28088,5.16572 -1.63423,4.30522 -1.64405,4.78365 -0.13238,6.45403 1.99818,2.20795 3.67258,2.29242 5.35109,0.26994 z m -501.03228,6.28648 c -3.57285,-2.7182 -8.29608,-5.86279 -10.49608,-6.988 -8.58793,-4.39234 -15.26495,-9.65127 -16.40463,-12.92056 -1.65431,-4.74557 0.83504,-11.17649 8.23874,-21.28377 3.39124,-4.62961 6.64937,-9.21235 7.24029,-10.18389 0.94702,-1.55701 1.30269,-1.2987 3,2.17874 1.33075,2.72644 3.57427,4.92721 7.26253,7.12416 l 5.33694,3.17899 -3.55823,0.98248 c -5.02476,1.3874 -9.10053,4.55424 -10.99235,8.54098 -1.84513,3.88832 -2.12022,9.82151 -0.58811,12.6843 2.18124,4.07568 -3.1673,0.79657 -6.19835,-3.80012 -2.22587,-3.3756 -2.36531,-9.34297 -0.31115,-13.31528 0.83912,-1.62269 1.10413,-2.95034 0.58889,-2.95034 -1.82331,0 -6.04449,6.10951 -6.72409,9.73211 -1.20967,6.44809 1.51432,9.66191 14.60952,17.23658 6.325,3.65858 12.43206,7.24533 13.57124,7.97055 1.83448,1.16785 2.69178,0.91636 7.5,-2.2001 2.98582,-1.93527 8.57876,-5.32613 12.42876,-7.53524 8.79124,-5.04438 11.52262,-7.95367 12.19855,-12.99309 0.47236,-3.52168 0.12927,-4.42806 -2.94653,-7.78434 l -3.48113,-3.79858 0.11455,8.29073 0.11456,8.29073 -4.67928,4.24371 c -7.45388,6.76002 -18.77866,9.03626 -26.32072,5.29035 C 277.93656,351.49022 277.58506,342 285.99096,342 c 1.99356,0 2.02792,0.13496 0.56574,2.22251 -3.91489,5.58929 0.25171,11.77749 7.92996,11.77749 5.98565,0 10.44873,-1.94607 13.9176,-6.06859 2.40925,-2.86323 2.74754,-3.9998 2.36756,-7.95431 -0.69085,-7.18987 -3.74807,-10.36708 -15.29573,-15.89612 C 284.39795,320.77674 282,318.31217 282,312.23047 c 0,-2.93078 1.05282,-5.33505 4.44686,-10.15501 2.44578,-3.4733 4.73677,-7.63502 5.09109,-9.24825 0.81908,-3.72924 2.37332,-3.20558 5.1956,1.75053 3.19553,5.61157 2.94493,9.41002 -0.85671,12.98517 -1.71774,1.6154 -3.75248,4.40844 -4.52164,6.20675 -1.20993,2.82886 -1.19873,3.63776 0.0831,6 l 1.48159,2.73034 0.04,-3.34571 c 0.0467,-3.90295 2.20574,-7.90813 5.64005,-10.46275 l 2.4312,-1.80845 -0.64382,5.47788 c -0.52361,4.45512 -0.24175,6.30844 1.50963,9.9263 2.19236,4.52882 6.10298,8.94495 6.10298,6.89189 0,-0.62195 -0.89832,-2.6042 -1.99626,-4.40499 -2.27629,-3.73345 -2.51006,-6.5688 -0.84322,-10.22712 1.57251,-3.4513 2.53667,-3.20753 4.3348,1.09598 0.83718,2.00367 4.59599,6.87899 8.35291,10.83405 10.5615,11.11851 11.33223,17.22074 3.18152,25.18957 -1.71301,1.67479 -5.81634,4.57244 -9.11851,6.43921 -3.30217,1.86678 -8.79735,5.4629 -12.21151,7.99138 l -6.20758,4.59724 z M 486.91216,366.75 c -1.17067,-2.3375 -3.87982,-6.35573 -6.02032,-8.92941 C 478.75133,355.24692 477,352.98503 477,352.79417 c 0,-0.19086 1.73503,-0.18156 3.85563,0.0207 3.23944,0.30893 4.19833,-0.068 6,-2.35843 2.71279,-3.44875 2.73342,-7.43784 0.0561,-10.84153 -2.79226,-3.54979 -7.09496,-5.66842 -14.82375,-7.29915 -13.49689,-2.84778 -18.31456,-9.75792 -15.03537,-21.56573 1.07008,-3.85318 2.93979,-5.11769 2.95719,-2 0.0162,2.90742 4.51443,11.5634 7.59155,14.60858 1.58872,1.57222 6.14261,4.6445 10.11977,6.8273 3.97716,2.18279 8.36694,5.31845 9.75506,6.96814 l 2.52385,2.99943 2.52385,-2.99943 c 1.38812,-1.64969 5.81787,-4.80729 9.84387,-7.01689 10.18129,-5.58781 15.58499,-12.03769 17.17185,-20.49638 0.84472,-4.50273 1.90474,-3.78726 3.55286,2.39804 1.60571,6.02612 0.55271,10.92167 -3.16767,14.72697 -3.25141,3.32561 -5.89261,4.4033 -15.4127,6.28886 C 497.1561,334.51154 491,339.83882 491,344.74749 c 0,4.4745 3.54275,8.42208 7.37442,8.21709 1.71907,-0.092 3.46826,-0.12162 3.88709,-0.0659 0.41883,0.0557 -1.30638,2.64012 -3.8338,5.74311 -2.52741,3.10298 -5.31593,7.15298 -6.19672,9 -0.88078,1.84701 -1.95892,3.35821 -2.39588,3.35821 -0.43695,0 -1.75228,-1.9125 -2.92295,-4.25 z m 4.97849,-4.40936 c 0.96828,-2.12513 0.9503,-2.82515 -0.0895,-3.48469 -3.42864,-2.17477 -5.70208,0.0922 -3.75014,3.7394 1.64461,3.07297 2.34459,3.02654 3.83962,-0.25471 z M 489.5,355.76178 c 0.55,0 1.7875,0.32675 2.75,0.7261 2.33504,0.96884 2.22686,-0.74635 -0.18473,-2.92881 -1.84459,-1.66933 -2.05278,-1.6649 -4.46857,0.095 -2.90748,2.11811 -3.4432,3.91112 -0.8467,2.8338 0.9625,-0.39935 2.2,-0.7261 2.75,-0.7261 z m 194,9.52782 c -2.0267,-3.07032 -4.78438,-5.49664 -8.5,-7.47865 -11.6338,-6.20578 -15.80685,-9.70999 -18.65878,-15.66822 -3.36959,-7.0397 -3.01527,-6.65813 -4.80407,-5.17356 -1.63041,1.35312 -6.53715,0.63778 -6.53715,-0.95304 0,-1.8503 3.87616,-3.15277 6,-2.01613 2.11542,1.13214 2.33011,0.84278 2.03931,-2.74856 -0.10013,-1.23671 0.50683,-4.61827 1.34881,-7.51457 3.26441,-11.22918 15.61092,-17.67835 25.16475,-13.14476 4.70969,2.2349 6.0264,4.00498 4.41948,5.9412 -1.1315,1.36338 -1.51059,1.30967 -3.42052,-0.48461 -2.87479,-2.70073 -7.29958,-3.46298 -12.29459,-2.11797 -11.33334,3.05176 -14.3761,18.72903 -5.6204,28.9581 2.27222,2.65458 6.18603,5.39376 11.04824,7.73239 4.14124,1.99185 8.82863,4.98094 10.41642,6.64241 l 2.88689,3.02085 2.06568,-2.62608 c 1.13612,-1.44435 6.05794,-4.68801 10.93738,-7.20814 14.68667,-7.58537 19.49712,-17.61238 13.94844,-29.07443 -3.87422,-8.00307 -15.64752,-10.81748 -21.65256,-5.17603 -2.00448,1.8831 -2.30097,1.92823 -2.87311,0.43726 -1.25169,-3.26185 4.94613,-7.64458 10.78612,-7.62729 1.81481,0.005 5.59443,1.07829 8.39916,2.38426 7.42757,3.45853 11.4005,9.95887 11.4005,18.65302 0,5.02198 0.64945,5.9035 2.77979,3.77316 0.9064,-0.9064 1.76382,-0.86724 3.7,0.16898 1.38612,0.74182 2.52021,1.71416 2.52021,2.16074 0,1.44227 -5.24158,2.18029 -7.12615,1.00336 -1.60935,-1.00506 -2.07954,-0.54591 -3.99092,3.89722 -2.56367,5.95941 -7.48655,10.44249 -16.89722,15.38766 -6.30955,3.31557 -9.05285,5.6965 -12.98571,11.27035 -1.47563,2.09135 -1.54873,2.05206 -4.5,-2.41892 z m -104.33928,2.88192 c -0.90834,-0.61035 0.31721,-1.05907 3.80887,-1.39458 7.64707,-0.73478 8.15968,-2.11333 1.85853,-4.99809 -8.50901,-3.89555 -13.547,-10.52111 -13.75204,-18.08555 -0.0733,-2.70376 0.005,-2.74961 2.14643,-1.25 6.69375,4.68848 14.59543,-3.0639 12.3286,-12.09567 -0.36795,-1.46604 -2.17247,-4.16899 -4.01005,-6.00657 -3.0109,-3.0109 -3.90748,-3.34106 -9.07303,-3.34106 -7.68322,0 -11.93043,2.64939 -15.07567,9.40412 -1.62441,3.48859 -2.3759,6.90949 -2.38259,10.84588 -0.0112,6.56883 -1.4163,7.51234 -2.97854,2 -3.32982,-11.74927 -1.68522,-23.41266 4.64636,-32.9516 3.72153,-5.60672 6.2749,-8.08376 4.85765,-4.71244 -2.12189,5.04749 -3.56704,9.71558 -3.13997,10.14265 0.26036,0.26035 1.96543,-0.64396 3.78905,-2.00957 6.49684,-4.86513 9.72758,-5.95764 16.36743,-5.53485 3.43146,0.2185 6.95506,0.99154 7.83022,1.71786 1.42492,1.18257 1.27909,1.61215 -1.39538,4.11048 -3.5646,3.32983 -3.82434,6.65273 -0.81869,10.47379 6.04867,7.68964 17.92683,6.15585 22.20881,-2.86776 1.82251,-3.84064 2.09965,-9.23543 0.66792,-13.00118 -1.44807,-3.80871 -7.9265,-10.51646 -12.32332,-12.75956 -5.37451,-2.74187 -4.0861,-3.3231 3.21821,-1.45183 11.46609,2.93748 21.48034,11.40897 26.02799,22.01822 1.14552,2.67237 1.9325,5.00912 1.74885,5.19276 -0.18364,0.18365 -2.01735,-1.68004 -4.0749,-4.14153 C 619.58391,315.01395 617.57661,313 617.1808,313 c -0.39582,0 -0.55009,3.35809 -0.34283,7.46241 0.31272,6.19286 -0.005,8.25101 -1.86708,12.09772 -1.92304,3.97247 -6.77509,8.42365 -9.19589,8.43613 -0.39875,0.002 -0.4771,-1.23574 -0.17412,-2.75066 0.42181,-2.10903 -0.0591,-3.32742 -2.05234,-5.2 -6.7206,-6.31368 -17.88187,0.17487 -17.88187,10.39553 0,12.75024 13.85978,19.00715 27.33302,12.33932 2.98533,-1.47743 5.63993,-2.47417 5.89911,-2.21498 1.1302,1.13019 -7.95933,8.8227 -13.87247,11.74033 -5.59575,2.76102 -7.69776,3.23295 -15.5,3.47991 -4.96448,0.15715 -9.629,-0.11924 -10.36561,-0.61419 z M 869.06946,356.25 c -7.05858,-7.0125 -14.5199,-15.32904 -16.58072,-18.48121 -3.43219,-5.24976 -3.64534,-5.9765 -2.53744,-8.65122 0.66523,-1.60601 2.27046,-3.91672 3.56717,-5.13492 l 2.35765,-2.2149 1.56194,3.73825 c 0.85907,2.05604 1.56194,3.9161 1.56194,4.13347 0,0.21737 2.26387,4.41118 5.03083,9.31957 C 869.0107,347.79298 882.34544,366 883.83551,366 885.77807,366 899,346.3324 899,343.44284 c 0,-2.25641 -0.8364,-1.81668 -7.71714,4.05716 -3.54355,3.025 -7.01544,5.5 -7.71532,5.5 -1.33328,0 -8.62654,-8.90897 -12.39281,-15.13824 l -2.19971,-3.63825 5.59308,-5.11175 C 877.64429,326.30029 880.77335,324 881.52157,324 c 3.06666,0 2.46733,2.4356 -1.62551,6.60591 l -4.33727,4.41935 1.86497,3.46303 c 2.65988,4.93911 5.07648,6.85448 7.78595,6.17108 1.25966,-0.31772 5.51285,-3.52106 9.45154,-7.11852 C 898.59993,333.94338 902.03958,331 902.30491,331 902.82439,331 908,343.52199 908,344.77885 908,347.55266 886.08151,369 883.24677,369 c -0.73894,0 -7.11874,-5.7375 -14.17731,-12.75 z M 382.64317,366.95655 C 378.53249,365.92304 373,363.01582 373,361.88925 c 0,-0.37374 2.74009,0.17328 6.08909,1.21561 11.90026,3.70378 21.61085,1.72204 27.68795,-5.65054 8.59181,-10.42336 4.29243,-26.20715 -8.46584,-31.07957 -3.26167,-1.24565 -5.91424,-1.4867 -10.82418,-0.98367 -6.31799,0.6473 -6.53766,0.59189 -7.69128,-1.94003 -0.83928,-1.84203 -0.88153,-3.0968 -0.14407,-4.27871 1.61629,-2.59038 8.21778,-4.40685 13.97073,-3.84418 19.17992,1.87589 29.90193,24.07627 18.91864,39.17184 -3.81768,5.24706 -4.03971,5.83725 -1.73126,4.6018 5.39404,-2.8868 10.48434,-14.10306 10.48434,-23.1018 0,-20.45704 -20.31223,-34.98345 -39.68645,-28.38199 -2.90623,0.99025 -7.03516,3.73496 -10.64203,7.07429 -6.09459,5.64252 -9.1859,6.5244 -11.26077,3.21248 -2.63171,-4.20078 4.52385,-13.58269 14.4742,-18.97765 C 380.23586,295.64321 380.93878,295.5 391,295.5 c 9.46036,0 11.06109,0.27554 16.16679,2.78284 7.63307,3.74843 13.3361,9.74647 17.54337,18.45086 3.28236,6.79086 3.47478,7.74122 3.14313,15.52373 -0.29501,6.92244 -0.8955,9.39095 -3.64004,14.96365 -5.95132,12.08397 -17.35603,19.63722 -30.70799,20.33766 -3.85289,0.20212 -8.74083,-0.0689 -10.86209,-0.60219 z m 2.54919,-6.63214 c -4.37411,-2.15562 -7.59481,-8.36561 -6.72987,-12.97616 0.87865,-4.68359 5.89948,-10.13793 10.04872,-10.91633 7.22853,-1.35608 14.48879,3.65634 14.48879,10.00294 0,6.5906 -4.77278,7.46943 -8.5,1.56514 -2.86398,-4.53684 -5.80881,-5.19003 -9.59102,-2.12738 -2.60494,2.10935 -3.06334,8.03154 -0.82996,10.72259 2.31701,2.79183 7.04645,4.62841 10.30948,4.00349 2.23407,-0.42786 2.6885,-0.31862 1.6115,0.38738 -2.24411,1.47108 -7.08081,1.17496 -10.80764,-0.66167 z m 363.0243,-8.22439 c 0.15584,-0.33001 2.48158,-4.31252 5.16831,-8.85002 C 757.84166,335.72329 760,333.35778 760,336 c 0,1.28555 9.477,1.29718 13.94037,0.0171 1.88494,-0.54059 3.55133,-0.85873 3.70309,-0.70698 0.15175,0.15176 -0.88473,1.60656 -2.3033,3.2329 -4.78801,5.48929 -7.53028,10.28225 -6.9459,12.14009 0.52618,1.67281 -0.26246,1.82482 -9.94472,1.91691 -5.78392,0.055 -10.38872,-0.16999 -10.23288,-0.5 z m 20.24987,-8.78796 3.96653,-4.49955 -4.96653,0.72157 c -2.73159,0.39686 -5.69782,1.09979 -6.59162,1.56207 -2.39562,1.23904 -3.00741,4.72264 -1.03191,5.8758 2.8727,1.67687 4.54441,0.96738 8.62353,-3.65989 z m 33.53826,7.38828 c -0.007,-2.67115 -2.64753,-7.2962 -6.81136,-11.93103 -3.4337,-3.8221 -3.51763,-4.05897 -1.19343,-3.36825 4.76056,1.41476 17,1.94066 17,0.73045 0,-2.38292 1.76914,-0.96987 3.44858,2.75446 0.96378,2.13728 3.05519,5.84978 4.64759,8.25 1.5924,2.40021 2.89719,4.63872 2.89955,4.97445 0.002,0.33573 -4.49356,0.56073 -9.99093,0.5 -8.91484,-0.0985 -9.99572,-0.30494 -10,-1.91008 z m 9.79183,-4.16362 c 0.85989,-0.85989 -1.22439,-5.52924 -2.64603,-5.92783 C 805.45535,339.57283 799,338.86832 799,339.5011 c 0,0.37229 1.68725,2.45745 3.74946,4.63369 3.04289,3.21118 4.22027,3.83864 6.24795,3.32973 1.37417,-0.3449 2.63381,-0.76241 2.79921,-0.9278 z m -448.26681,3.51152 c -1.2738,-2.06106 0.52885,-5.18095 2.80608,-4.85654 3.05429,0.43511 3.06144,5.18043 0.008,5.61549 -1.1856,0.16895 -2.45215,-0.17258 -2.81455,-0.75895 z m 114.59207,0.0482 C 476.34587,348.97158 477.55687,347 480.02383,347 c 4.15622,0 4.30732,-7.12535 0.17889,-8.43566 -1.05974,-0.33635 -3.99563,0.27527 -6.5242,1.35914 -9.95842,4.26867 -16.76759,3.26714 -20.59681,-3.02951 -2.28779,-3.76197 -3.52533,-9.92088 -2.58731,-12.87634 0.59176,-1.86445 1.11071,-1.56091 5.30269,3.10158 5.37353,5.97666 9.22403,7.88079 15.93639,7.88079 10.90162,0 17.17564,7.7789 11.49325,14.25 -1.70053,1.93656 -3.03458,2.15777 -5.10485,0.84649 z m 18.51506,-0.60241 c -6.10632,-6.10632 0.66802,-14.48899 11.71193,-14.49253 6.45552,-0.002 10.83072,-2.241 16.05931,-8.21806 4.28222,-4.89521 4.33997,-4.92306 4.97383,-2.39757 1.67502,6.67381 -3.1485,15.86462 -9.2921,17.70529 -3.88367,1.16357 -7.95283,0.38708 -16.84208,-3.21389 -2.96575,-1.20141 -3.44394,-1.12565 -5.42983,0.86023 -1.86965,1.86966 -2.01382,2.53726 -1.01927,4.72006 0.66794,1.46597 1.98926,2.54239 3.12081,2.54239 2.80157,0 3.48376,1.71379 1.17421,2.94983 -2.52278,1.35015 -2.66551,1.33555 -4.45681,-0.45575 z M 298.6797,347.11681 c 1.34227,-5.13283 -5.64667,-10.97342 -11.68569,-9.76561 -3.6962,0.73924 -3.83668,-0.54319 -0.35915,-3.27862 1.77209,-1.39393 4.09693,-2.07258 7.1,-2.07258 3.74467,0 5.01375,0.54861 7.86514,3.4 4.3101,4.3101 4.58948,8.51919 0.76514,11.52742 -3.26858,2.57106 -4.32242,2.62522 -3.68544,0.18939 z M 695,342.09701 c 0,-0.43287 0.94607,-1.64322 2.10238,-2.68966 C 699.70383,337.05306 702,332.7291 702,330.18452 702,327.47419 698.21827,323 695.92742,323 c -2.69641,0 -2.40174,-1.46286 0.56715,-2.81557 7.85332,-3.57822 15.8075,5.65619 10.9032,12.65807 -1.48726,2.12335 -1.46932,2.3882 0.25,3.6907 1.7229,1.30521 1.64275,1.40626 -1.14777,1.44704 -1.65,0.0241 -4.9125,1.13734 -7.25,2.47383 -2.3375,1.33648 -4.25,2.07581 -4.25,1.64294 z M 673,340 c -1.925,-1.05389 -4.82351,-1.93503 -6.44113,-1.95808 -2.65663,-0.0379 -2.76969,-0.16728 -1.16886,-1.33784 1.695,-1.23941 1.69526,-1.45742 0.006,-5 -1.6447,-3.44897 -1.65463,-3.93836 -0.14423,-7.10571 1.96453,-4.11967 6.97977,-6.22126 11.10426,-4.65313 2.85259,1.08455 3.59046,3.05476 1.14404,3.05476 -2.53361,0 -5.5,3.81086 -5.5,7.06574 0,3.46215 1.30077,6.39217 4.29928,9.68426 2.48471,2.72798 1.37983,2.8117 -3.29928,0.25 z m 105.66667,1.33333 c -1.40339,-1.40338 -0.54812,-3.55773 2.58333,-6.50715 l 3.25,-3.06108 -3,0.66494 c -1.65,0.36571 -3.72397,0.87873 -4.60882,1.14003 -1.95255,0.57659 -4.344,-2.02838 -3.34542,-3.64412 0.46905,-0.75894 2.26079,-0.95018 5.16838,-0.55165 l 4.45043,0.61 -2.58228,-3.06888 C 779.16203,325.22754 778,323.28108 778,322.58994 c 0,-4.18706 4.40522,-1.90805 6.09341,3.15238 L 785.347,329.5 786.23659,326 c 0.83034,-3.26687 3.08724,-6 4.95454,-6 1.70349,0 0.75049,5.60056 -1.19113,7 -3.05658,2.20306 -2.39846,3.08735 1.79826,2.41627 2.75648,-0.44078 4.14557,-0.18887 5.06456,0.91844 1.91829,2.3114 -1.60232,3.88719 -5.91886,2.64922 -4.24953,-1.21875 -4.50534,-0.85995 -1.44002,2.01977 2.16772,2.03647 3.53617,6.9963 1.93032,6.9963 -1.97575,0 -4.36869,-2.42497 -4.93435,-5.00041 -0.76825,-3.49781 -1.98208,-3.19891 -2.96841,0.73094 -0.87182,3.47359 -3.24012,5.22751 -4.86483,3.6028 z M 909.92235,337.25 c -1.45379,-3.88845 -7.80972,-16.18141 -10.21149,-19.75 -5.64735,-8.39089 -15.21713,-20.5 -16.20106,-20.5 -2.70528,0 -16.17877,20.4931 -15.26863,23.22351 0.19737,0.5921 3.63557,-1.74364 7.64046,-5.19054 l 7.2816,-6.26709 3.44647,3.34045 c 1.89556,1.83724 5.29716,6.181 7.55913,9.65279 l 4.11265,6.31235 -2.39074,2.56378 c -1.31491,1.41008 -4.0889,3.91525 -6.16442,5.56705 -3.13937,2.49846 -4.03,2.79056 -5.29852,1.73778 -1.32751,-1.10173 -0.98426,-1.81631 2.65241,-5.52181 4.94433,-5.0379 4.85571,-7.14957 -0.51863,-12.35859 l -3.5182,-3.40997 -3.50573,2.49437 c -1.92815,1.3719 -5.73044,4.60071 -8.44952,7.17514 C 868.36904,328.89365 865.69419,331 865.14402,331 863.88634,331 860,320.76693 860,317.45537 c 0,-1.80315 2.71341,-5.15283 10.05473,-12.41247 5.5301,-5.46858 10.95213,-10.22769 12.04896,-10.57581 2.61353,-0.8295 4.83961,0.71634 15.43198,10.71635 C 906.77418,313.9053 918,327.98728 918,330.85446 918,332.91525 913.30489,340 911.9392,340 c -0.54379,0 -1.45137,-1.2375 -2.01685,-2.75 z M 356.57143,335.42857 C 355.70714,334.56429 355,333.02143 355,332 c 0,-1.98538 2.4944,-5 4.13717,-5 2.67607,0 4.86283,2.24844 4.86283,5 0,4.39412 -4.42207,6.43507 -7.42857,3.42857 z m 119.91376,-8.53389 c -4.96382,-2.62232 -8.25971,-5.59608 -10.0802,-9.09502 -1.83186,-3.52077 -1.79949,-12.1361 0.0591,-15.7302 C 467.93823,299.21877 473.445,294 474.97886,294 c 0.45397,0 0.17081,2.1375 -0.62924,4.75 -2.47547,8.08339 0.69452,20.60512 6.81501,26.91986 2.7889,2.87741 2.96111,3.33014 1.26673,3.33014 -1.07854,0 -3.75431,-0.94739 -5.94617,-2.10532 z m 22.80998,-1.92641 c 1.89806,-2.21746 4.21527,-6.46149 5.14935,-9.43119 1.95526,-6.21629 2.22591,-15.41585 0.54589,-18.555 -2.89794,-5.41486 3.64746,-2.03422 7.75959,4.00775 3.1597,4.64256 3.14352,13.38484 -0.0335,18.11229 C 510.26511,322.74976 500.79291,329 497.71631,329 c -1.56847,0 -1.31236,-0.65399 1.57886,-4.03173 z m 254.77897,-4.56776 c -2.29954,-4.04168 -4.60695,-7.61177 -5.12756,-7.93353 -2.79867,-1.72967 0.0885,-2.46698 9.66041,-2.46698 9.39449,0 10.53547,0.18637 9.98137,1.63035 -0.73572,1.91725 3.08497,8.80811 6.81648,12.29396 3.19236,2.9822 3.33482,4.30006 0.34516,3.19308 -4.75748,-1.76157 -12.20334,-2.13073 -14.87243,-0.73736 -2.60246,1.35857 -2.65428,1.31303 -6.80343,-5.97952 z m 13.95128,-1.25532 c -3.34742,-3.96983 -4.55296,-4.767 -6.61342,-4.37312 -2.13146,0.40745 -2.47296,0.95562 -2.2159,3.5569 0.27625,2.79545 0.75877,3.18248 5.3039,4.25433 7.76469,1.83109 7.87651,1.72203 3.52542,-3.43811 z M 792,327.29408 c 0,-0.50594 1.38152,-2.24159 3.07005,-3.85699 4.32281,-4.1356 7.23241,-9.17248 6.62977,-11.47697 -0.48505,-1.85483 0.0509,-1.96012 9.97713,-1.96012 5.76935,0 10.33972,0.3375 10.15638,0.75 -1.92089,4.32201 -10.29593,17.12878 -10.74544,16.4315 -0.32334,-0.50157 -1.48789,-1.18277 -2.58789,-1.51379 -2.11563,-0.63665 -11.79515,0.54608 -14.75,1.80228 -0.9625,0.4092 -1.75,0.33003 -1.75,-0.17591 z m 14.12375,-4.92986 c 5.86959,-0.93858 7.94369,-5.62768 3.27449,-7.40291 -2.33662,-0.88838 -2.99485,-0.55465 -6.45899,3.27475 -4.12735,4.56255 -4.91066,6.35068 -2.35183,5.36877 0.87308,-0.33504 3.36443,-0.89331 5.53633,-1.24061 z M 783.6231,319.08655 C 781.46908,312.501 778.1558,307 776.34331,307 c -1.0487,0 -0.44184,-1.758 2.15753,-6.25 1.98916,-3.4375 4.08424,-7.4875 4.65573,-9 1.18798,-3.14407 2.62058,-3.54977 3.53116,-1 0.34373,0.9625 2.37621,4.7905 4.51662,8.50667 l 3.89166,6.75667 -2.64984,2.2793 c -1.59389,1.37101 -3.555,4.96898 -4.92127,9.02887 l -2.27144,6.74957 z m 3.49496,-16.41294 -2.11806,-2.11805 -2.15087,2.15087 c -1.85418,1.85417 -1.99581,2.54006 -1.02678,4.97222 0.61825,1.55174 1.63978,4.17135 2.27007,5.82135 l 1.14597,3 1.99886,-5.85417 1.99886,-5.85416 z m -136.62352,10.95421 c -1.2831,-1.1703 -2.6246,-3.14032 -2.98111,-4.37782 -0.58598,-2.03399 -0.30572,-2.25 2.91918,-2.25 6.33029,0 10.65717,7.1762 4.98111,8.26124 -1.7511,0.33475 -3.33963,-0.19273 -4.91918,-1.63342 z M 716,312.57143 C 716,309.13456 718.55922,307 722.67984,307 c 3.35743,0 3.50201,0.13931 2.84817,2.74441 C 724.50462,313.82194 723.12597,315 719.37756,315 716.46799,315 716,314.6635 716,312.57143 Z m -32.4971,-3.5684 c -3.61606,-3.77436 -3.66258,-7.65224 -0.15538,-12.95198 1.47447,-2.22808 3.02392,-4.05105 3.44323,-4.05105 1.45506,0 6.20913,8.41405 6.18701,10.95017 -0.0219,2.50778 -1.94607,5.48442 -5.05819,7.82476 -1.2972,0.97551 -2.0887,0.65798 -4.41667,-1.7719 z"
       id="path2" />
  </g>
</svg>
